<svg width="512" height="512" viewBox="0 0 512 512" fill="none" xmlns="http://www.w3.org/2000/svg">
<path d="M420.659 384C368.307 253.261 307.2 218.803 307.2 153.6V76.8001H320C323.395 76.8001 326.651 75.4515 329.051 73.0511C331.451 70.6506 332.8 67.3949 332.8 64.0001V38.4001C332.8 35.0053 331.451 31.7496 329.051 29.3491C326.651 26.9487 323.395 25.6001 320 25.6001H192C188.605 25.6001 185.35 26.9487 182.949 29.3491C180.549 31.7496 179.2 35.0053 179.2 38.4001V64.0001C179.2 67.3949 180.549 70.6506 182.949 73.0511C185.35 75.4515 188.605 76.8001 192 76.8001H204.8V153.6C204.8 218.803 143.693 253.261 91.3408 384C74.6752 425.6 31.872 486.4 256 486.4C480.128 486.4 437.325 425.6 420.659 384ZM379.264 428.826C361.293 434.202 325.53 440.32 256 440.32C186.47 440.32 150.707 434.202 132.736 428.826C126.362 426.931 123.878 419.533 126.131 412.749C131.763 395.597 142.387 365.952 162.253 332.851C210.79 251.981 261.146 345.574 303.053 345.574C344.96 345.574 333.466 305.613 349.747 332.851C364.73 358.053 376.846 384.852 385.869 412.749C388.122 419.533 385.638 426.906 379.264 428.826Z" fill="url(#paint0_linear_3850_15)"/>
<defs>
<linearGradient id="paint0_linear_3850_15" x1="256" y1="25.6001" x2="256" y2="486.4" gradientUnits="userSpaceOnUse">
<stop stop-color="#0189FF"/>
<stop offset="1" stop-color="#392FEF"/>
</linearGradient>
</defs>
</svg>
